<?xml version="1.0" standalone="no"?><!DOCTYPE svg PUBLIC "-//W3C//DTD SVG 1.1//EN" "http://www.w3.org/Graphics/SVG/1.1/DTD/svg11.dtd"><svg t="1636522407417" class="icon" viewBox="0 0 1155 1024" version="1.1" xmlns="http://www.w3.org/2000/svg" p-id="15733" xmlns:xlink="http://www.w3.org/1999/xlink" width="225.5859375" height="200"><defs><style type="text/css"></style></defs><path d="M1105.170732 568.195122V231.02439c0-43.707317-37.463415-78.04878-84.292683-78.04878H284.097561C237.268293 152.97561 199.804878 187.317073 199.804878 231.02439v231.02439c-28.097561 0-49.95122 21.853659-49.951219 46.829269V967.804878c0 24.97561 21.853659 46.829268 49.951219 46.829268h368.390244c28.097561 0 49.95122-21.853659 49.951219-46.829268h140.487805c15.609756 0 31.219512-6.243902 40.585366-18.731707 9.365854-12.487805 12.487805-24.97561 9.365854-40.585366l-34.341464-109.268293h96.780488V967.804878c0 24.97561 21.853659 46.829268 49.95122 46.829268h184.195122c28.097561 0 49.95122-21.853659 49.951219-46.829268V611.902439c3.121951-24.97561-21.853659-43.707317-49.951219-43.707317z" fill="#F7CB61" p-id="15734"></path><path d="M1024 574.439024h-227.902439v-34.341463c0-9.365854 9.365854-18.731707 18.731707-18.731707h193.560976c9.365854 0 18.731707 9.365854 18.731707 18.731707v34.341463z m0 302.829269h-227.902439v-265.365854h227.902439v265.365854z m0 68.682927c0 9.365854-9.365854 18.731707-18.731707 18.731707h-193.560976c-9.365854 0-18.731707-9.365854-18.731707-18.731707v-34.341464h227.902439v34.341464z m-265.365854-408.97561v34.341463h-265.365853v-159.219512c0-28.097561-24.97561-53.073171-53.073171-53.073171H90.536585V93.658537c0-28.097561 24.97561-53.073171 53.073171-53.073171h774.243903c28.097561 0 53.073171 24.97561 53.07317 53.073171v390.243902h-159.219512c-28.097561 0-53.073171 24.97561-53.073171 53.073171z m0 177.951219h-265.365853v-106.146341h265.365853v106.146341z m-262.243902 124.878049v-87.414634h128l24.97561 87.414634h-152.97561z m162.341463 49.95122c0 6.243902 0 12.487805-3.121951 15.609756s-9.365854 6.243902-12.487805 6.243902h-146.731707v-34.341463H658.731707v12.487805z m-199.804878-440.195122H37.463415v-34.341464c0-9.365854 9.365854-18.731707 18.731707-18.731707h387.121951c9.365854 0 18.731707 9.365854 18.731707 18.731707v34.341464z m0 427.707317H37.463415V483.902439h421.463414v393.365854z m0 68.682927c0 9.365854-9.365854 18.731707-18.731707 18.731707H53.073171c-9.365854 0-18.731707-9.365854-18.731708-18.731707v-34.341464h421.463415v34.341464z m546.341464-462.048781V93.658537c0-49.95122-40.585366-87.414634-87.414634-87.414635H143.609756C93.658537 6.243902 53.073171 43.707317 53.073171 93.658537v265.365853c-28.097561 0-53.073171 24.97561-53.073171 53.073171v533.853659c0 28.097561 24.97561 53.073171 53.073171 53.07317H440.195122c28.097561 0 53.073171-24.97561 53.073171-53.07317h146.731707c15.609756 0 31.219512-6.243902 40.585366-21.853659 9.365854-12.487805 12.487805-31.219512 9.365854-46.829268l-31.219513-124.878049h99.902439v196.682927c0 28.097561 24.97561 53.073171 53.073171 53.07317h193.560976c28.097561 0 53.073171-24.97561 53.07317-53.07317V536.97561c0-28.097561-21.853659-53.073171-53.07317-53.073171z" fill="#040000" p-id="15735"></path><path d="M93.658537 739.902439l71.804878-71.804878 24.975609 24.97561-71.804878 71.804878zM165.463415 792.97561l212.292683-212.292683 24.975609 24.97561L190.439024 817.95122zM199.804878 633.756098l106.146342-109.268293 24.975609 28.097561-106.146341 106.146341zM833.560976 739.902439l90.536585-90.536585 24.97561 24.975609-90.536586 90.536586z" fill="#040000" p-id="15736"></path><path d="M871.02439 811.707317l87.414634-90.536585 24.97561 24.975609-87.414634 90.536586zM465.170732 312.195122l106.146341-106.146342 24.97561 24.97561-106.146342 106.146342zM624.390244 277.853659l106.146341-106.146342 24.97561 24.97561-106.146341 106.146341zM518.243902 384l68.682927-71.804878 24.97561 24.97561-68.682927 71.804878zM605.658537 171.707317l71.804878-71.804878 24.975609 24.97561-71.804878 71.804878z" fill="#040000" p-id="15737"></path></svg>